<?xml version="1.0" encoding="UTF-8" ?>
<!DOCTYPE svg PUBLIC "-//W3C//DTD SVG 1.1//EN" "http://www.w3.org/Graphics/SVG/1.1/DTD/svg11.dtd">
<svg width="143pt" height="192pt" viewBox="0 0 143 192" version="1.1" xmlns="http://www.w3.org/2000/svg">
<g id="#be90c0fd">
<path fill="#be90c0" opacity="1.00" d=" M 69.42 0.00 L 82.53 0.00 C 103.69 3.95 123.98 16.33 134.54 35.44 C 136.51 41.77 130.92 46.15 126.99 50.01 C 122.12 53.38 117.11 57.76 111.03 58.56 C 105.48 56.04 101.67 50.77 96.55 47.52 C 88.42 41.75 76.98 38.78 67.75 43.72 C 60.11 48.83 54.50 56.57 50.91 64.95 C 43.65 82.57 44.16 102.80 50.26 120.69 C 54.47 130.79 60.71 141.84 72.01 145.03 C 84.07 147.30 95.69 141.32 104.12 133.12 C 108.63 129.70 112.31 123.65 118.75 124.18 C 127.31 127.23 133.28 134.65 137.99 142.08 C 140.07 145.25 140.17 149.78 137.99 152.93 C 122.19 175.83 93.16 190.73 65.12 184.90 C 45.71 181.80 29.38 168.19 19.06 151.98 C 2.79 126.82 -0.51 94.83 6.07 65.99 C 9.99 47.77 18.92 30.41 32.75 17.75 C 42.65 8.06 55.88 2.28 69.42 0.00 Z" />
<path fill="#be90c0" opacity="1.00" d=" M 76.33 61.18 C 81.21 62.17 87.94 62.12 90.84 67.11 C 96.24 77.33 95.26 89.51 96.07 100.67 C 95.25 101.49 94.44 102.31 93.62 103.13 C 90.26 101.96 86.92 100.70 83.52 99.62 C 82.33 107.73 82.39 116.00 80.84 124.07 C 70.12 110.82 65.38 93.79 61.57 77.49 C 66.64 76.81 71.75 76.52 76.86 76.12 C 76.24 71.17 75.43 66.16 76.33 61.18 Z" />
</g>
</svg>
