<svg version="1.1" id="Layer_1" xmlns="http://www.w3.org/2000/svg" xmlns:xlink="http://www.w3.org/1999/xlink" x="0px" y="0px"
	 width="100%" viewBox="0 0 143 300" enable-background="new 0 0 143 300" xml:space="preserve">
<path fill="#020102" opacity="1.000000" stroke="none" 
	d="
M57.000000,301.000000 
	C44.979103,301.000000 32.958210,301.000000 20.231480,300.685364 
	C21.391560,297.168213 23.833729,294.153290 24.955362,290.708435 
	C26.000204,287.499390 25.731354,283.836334 25.864992,280.366364 
	C25.950171,278.154663 26.612577,275.349487 23.017469,275.174622 
	C19.492302,275.003143 19.268581,277.347443 19.182306,280.134430 
	C19.080515,283.422668 18.892637,286.823975 17.957014,289.940582 
	C16.849552,293.629608 13.305615,294.104126 11.300673,290.845001 
	C9.977136,288.693542 9.178680,285.917206 9.060146,283.377960 
	C8.518315,271.770752 8.118196,260.149597 8.043466,248.531052 
	C8.007409,242.925110 8.425152,237.244537 9.435701,231.744415 
	C9.767041,229.941040 12.613632,228.599792 14.309994,227.047211 
	C15.613532,229.008667 17.364849,230.819931 18.088047,232.976044 
	C18.742521,234.927246 17.853930,237.381104 18.451080,239.371750 
	C18.844162,240.682114 20.644796,242.369919 21.852842,242.400543 
	C22.956200,242.428497 24.950056,240.545822 25.080559,239.345291 
	C25.435843,236.076904 25.208290,232.702927 24.854364,229.409180 
	C24.254400,223.825760 20.949352,220.498840 15.738832,219.815613 
	C9.771944,219.033218 5.738813,221.387772 3.447773,226.760925 
	C2.932713,227.968903 1.831419,228.926910 0.999999,230.000000 
	C1.000000,153.781952 1.000000,77.563919 1.000000,1.000000 
	C21.019566,1.000000 41.041126,1.000000 61.931030,1.231770 
	C62.190678,1.938091 61.651649,2.651550 60.963112,2.852344 
	C42.440559,8.254007 28.619173,19.875505 19.086582,36.209770 
	C0.247501,68.490868 -1.078664,102.646576 11.607984,137.107422 
	C22.836040,167.606277 48.823032,189.717957 82.944801,187.141190 
	C107.199165,185.309601 125.419319,173.170288 139.332291,153.899689 
	C141.953674,150.268829 142.059891,145.988388 139.010727,142.308151 
	C135.313171,137.845322 131.817276,133.076248 127.474884,129.316635 
	C119.211075,122.161873 116.960838,122.848145 108.925926,130.144302 
	C103.567360,135.010178 97.733826,139.716888 91.347603,143.011459 
	C78.023994,149.884949 66.434746,146.229401 58.035564,133.896301 
	C51.684765,124.570984 48.636322,114.126495 47.407085,103.123970 
	C45.401524,85.172806 48.736259,68.400970 59.536987,53.556896 
	C65.635284,45.175648 73.772980,41.199024 84.218842,43.143250 
	C92.504303,44.685368 99.414261,48.770142 104.940109,55.168804 
	C109.739098,60.725803 111.961121,61.405148 118.258995,57.777370 
	C122.820564,55.149765 127.289978,52.088505 131.091873,48.475052 
	C138.128525,41.787178 138.214401,38.160252 132.255951,30.393032 
	C122.275307,17.382645 109.693466,7.991469 93.821426,3.252985 
	C92.752052,2.933732 91.934616,1.770632 91.000000,1.000001 
	C108.638313,1.000000 126.276634,1.000000 144.000000,1.000000 
	C144.000000,74.020874 144.000000,147.041779 143.651169,220.726715 
	C138.318359,217.566711 136.314362,218.005676 134.270370,223.702698 
	C132.981155,227.295959 132.112259,231.038574 131.010422,234.700836 
	C129.435333,239.936066 127.819595,245.159058 126.221230,250.387268 
	C125.736244,250.328278 125.251266,250.269272 124.766289,250.210281 
	C123.146881,242.427261 121.491974,234.651428 119.918945,226.859055 
	C118.581909,220.235809 118.233658,219.974899 111.012497,221.402176 
	C110.631950,223.875229 109.920067,226.467941 109.881805,229.070541 
	C109.563972,250.686691 109.455948,272.306183 109.072952,293.920868 
	C108.988541,298.684540 110.813034,299.893951 115.723373,298.345001 
	C115.723373,282.047943 115.723373,265.564301 115.723373,249.080658 
	C117.569550,250.463181 118.381454,252.007477 118.886383,253.646362 
	C120.257149,258.095551 121.309303,262.652618 122.880539,267.025757 
	C123.532181,268.839447 125.183441,270.294006 126.380119,271.911865 
	C127.200264,270.242218 128.257919,268.645782 128.798889,266.890106 
	C130.987640,259.786682 133.017334,252.634201 135.105728,245.499832 
	C136.389587,247.369614 136.622665,249.113937 136.588882,250.853073 
	C136.304718,265.485107 135.914978,280.115295 135.689163,294.748108 
	C135.624527,298.937927 137.651901,300.059357 141.371521,298.248322 
	C142.243561,297.823761 143.123627,297.415649 144.000000,297.000000 
	C144.000000,298.323181 144.000000,299.646393 144.000000,301.000000 
	C126.312447,301.000000 108.624886,301.000000 90.380600,300.543365 
	C89.902351,298.776947 90.157356,297.449921 90.031273,296.160156 
	C89.046501,286.086700 87.926910,276.026245 86.968422,265.950409 
	C85.711464,252.737030 84.355186,239.527252 83.465660,226.287445 
	C83.077934,220.516525 79.119972,220.442764 75.212067,219.786636 
	C71.278770,219.126251 69.394051,221.069138 68.713531,224.790695 
	C65.190750,244.055527 61.431728,263.279510 58.153690,282.585388 
	C57.129890,288.615051 57.349548,294.855865 57.000000,301.000000 
M36.615753,220.202988 
	C35.705791,220.325180 34.795834,220.447357 33.303120,220.698578 
	C32.976498,221.136887 32.649876,221.575211 32.063503,222.918777 
	C31.947365,241.238419 31.831224,259.558044 31.183817,278.405151 
	C31.355583,280.317505 31.527349,282.229889 31.795563,285.045807 
	C31.864834,289.030487 31.934107,293.015167 32.139988,297.778503 
	C37.486713,298.060272 42.830708,298.481842 48.180897,298.586395 
	C54.106876,298.702209 54.339802,298.267975 52.632942,291.275696 
	C50.150429,291.196320 47.516277,290.542786 45.215229,291.150513 
	C39.440083,292.675751 39.080933,289.840210 39.080883,285.220215 
	C39.080662,264.153107 38.775875,243.085983 38.513901,221.446899 
	C38.044586,221.128799 37.575272,220.810699 36.615753,220.202988 
M67.423370,98.023170 
	C70.681519,105.474159 73.838333,112.972404 77.273987,120.340622 
	C78.064903,122.036835 79.812469,123.286987 81.119789,124.742409 
	C81.562019,124.556824 82.004242,124.371246 82.446465,124.185661 
	C82.750427,122.123222 83.232666,120.068214 83.319069,117.996696 
	C83.471664,114.338493 83.187340,110.656700 83.439606,107.009232 
	C83.857628,100.965050 84.823402,100.511368 90.320961,103.232719 
	C94.708626,105.404671 97.462410,104.116043 97.116562,99.340088 
	C96.448509,90.114838 95.507294,80.867386 93.896767,71.767632 
	C92.882622,66.037575 87.125809,62.207600 81.355896,62.390121 
	C78.011063,62.495937 75.496620,63.923111 76.171867,68.004860 
	C76.415230,69.475914 76.685631,70.942482 76.930641,72.413269 
	C77.831383,77.820412 77.375969,78.260979 71.992912,77.253983 
	C71.177849,77.101501 70.349266,77.022736 69.529076,76.896057 
	C63.988602,76.040291 62.033203,77.847038 63.225952,83.362289 
	C64.242813,88.064194 65.858261,92.636658 67.423370,98.023170 
M102.218452,230.555496 
	C102.218452,227.480881 102.218452,224.406265 102.218452,221.458298 
	C96.904381,220.669174 94.730965,221.823502 94.790596,227.036667 
	C95.043770,249.168091 94.909035,271.304047 94.884521,293.438324 
	C94.881645,296.036102 94.640892,298.540192 98.450523,298.561707 
	C102.422256,298.584137 101.862358,295.864075 101.875778,293.393616 
	C101.987770,272.775299 102.103447,252.156967 102.218452,230.555496 
z"/>
<path fill="#BE90C0" opacity="1.000000" stroke="none" 
	d="
M90.531342,1.000001 
	C91.934616,1.770632 92.752052,2.933732 93.821426,3.252985 
	C109.693466,7.991469 122.275307,17.382645 132.255951,30.393032 
	C138.214401,38.160252 138.128525,41.787178 131.091873,48.475052 
	C127.289978,52.088505 122.820564,55.149765 118.258995,57.777370 
	C111.961121,61.405148 109.739098,60.725803 104.940109,55.168804 
	C99.414261,48.770142 92.504303,44.685368 84.218842,43.143250 
	C73.772980,41.199024 65.635284,45.175648 59.536987,53.556896 
	C48.736259,68.400970 45.401524,85.172806 47.407085,103.123970 
	C48.636322,114.126495 51.684765,124.570984 58.035564,133.896301 
	C66.434746,146.229401 78.023994,149.884949 91.347603,143.011459 
	C97.733826,139.716888 103.567360,135.010178 108.925926,130.144302 
	C116.960838,122.848145 119.211075,122.161873 127.474884,129.316635 
	C131.817276,133.076248 135.313171,137.845322 139.010727,142.308151 
	C142.059891,145.988388 141.953674,150.268829 139.332291,153.899689 
	C125.419319,173.170288 107.199165,185.309601 82.944801,187.141190 
	C48.823032,189.717957 22.836040,167.606277 11.607984,137.107422 
	C-1.078664,102.646576 0.247501,68.490868 19.086582,36.209770 
	C28.619173,19.875505 42.440559,8.254007 60.963112,2.852344 
	C61.651649,2.651550 62.190678,1.938091 62.399689,1.231770 
	C71.354225,1.000000 80.708458,1.000000 90.531342,1.000001 
z"/>
<path fill="#6013A4" opacity="1.000000" stroke="none" 
	d="
M144.000000,296.531342 
	C143.123627,297.415649 142.243561,297.823761 141.371521,298.248322 
	C137.651901,300.059357 135.624527,298.937927 135.689163,294.748108 
	C135.914978,280.115295 136.304718,265.485107 136.588882,250.853073 
	C136.622665,249.113937 136.389587,247.369614 135.105728,245.499832 
	C133.017334,252.634201 130.987640,259.786682 128.798889,266.890106 
	C128.257919,268.645782 127.200264,270.242218 126.380119,271.911865 
	C125.183441,270.294006 123.532181,268.839447 122.880539,267.025757 
	C121.309303,262.652618 120.257149,258.095551 118.886383,253.646362 
	C118.381454,252.007477 117.569550,250.463181 115.723373,249.080658 
	C115.723373,265.564301 115.723373,282.047943 115.723373,298.345001 
	C110.813034,299.893951 108.988541,298.684540 109.072952,293.920868 
	C109.455948,272.306183 109.563972,250.686691 109.881805,229.070541 
	C109.920067,226.467941 110.631950,223.875229 111.012497,221.402176 
	C118.233658,219.974899 118.581909,220.235809 119.918945,226.859055 
	C121.491974,234.651428 123.146881,242.427261 124.766289,250.210281 
	C125.251266,250.269272 125.736244,250.328278 126.221230,250.387268 
	C127.819595,245.159058 129.435333,239.936066 131.010422,234.700836 
	C132.112259,231.038574 132.981155,227.295959 134.270370,223.702698 
	C136.314362,218.005676 138.318359,217.566711 143.651169,221.195374 
	C144.000000,246.020889 144.000000,271.041779 144.000000,296.531342 
z"/>
<path fill="#6013A4" opacity="1.000000" stroke="none" 
	d="
M57.416664,301.000000 
	C57.349548,294.855865 57.129890,288.615051 58.153690,282.585388 
	C61.431728,263.279510 65.190750,244.055527 68.713531,224.790695 
	C69.394051,221.069138 71.278770,219.126251 75.212067,219.786636 
	C79.119972,220.442764 83.077934,220.516525 83.465660,226.287445 
	C84.355186,239.527252 85.711464,252.737030 86.968422,265.950409 
	C87.926910,276.026245 89.046501,286.086700 90.031273,296.160156 
	C90.157356,297.449921 89.902351,298.776947 89.911942,300.543365 
	C87.958336,301.000000 85.916664,301.000000 83.644623,300.607452 
	C82.922188,296.090607 82.310020,291.976440 81.961121,287.840057 
	C81.002487,276.475189 81.049721,276.569763 69.611374,276.978577 
	C66.820770,277.078308 65.985382,278.087708 65.595718,280.718109 
	C64.589981,287.507324 63.222805,294.242950 62.000000,301.000000 
	C60.611111,301.000000 59.222221,301.000000 57.416664,301.000000 
M79.399345,259.107178 
	C78.451225,249.079025 77.503113,239.050873 76.466606,228.087830 
	C75.381752,229.359985 74.903923,229.662552 74.831886,230.042130 
	C72.484001,242.414169 70.099220,254.780853 68.010979,267.197266 
	C67.851486,268.145630 69.652878,270.179871 70.845978,270.472260 
	C76.889046,271.953186 80.421295,268.683746 79.872910,262.472778 
	C79.800095,261.648071 79.590324,260.835449 79.399345,259.107178 
z"/>
<path fill="#6013A3" opacity="1.000000" stroke="none" 
	d="
M0.999999,230.468658 
	C1.831419,228.926910 2.932713,227.968903 3.447773,226.760925 
	C5.738813,221.387772 9.771944,219.033218 15.738832,219.815613 
	C20.949352,220.498840 24.254400,223.825760 24.854364,229.409180 
	C25.208290,232.702927 25.435843,236.076904 25.080559,239.345291 
	C24.950056,240.545822 22.956200,242.428497 21.852842,242.400543 
	C20.644796,242.369919 18.844162,240.682114 18.451080,239.371750 
	C17.853930,237.381104 18.742521,234.927246 18.088047,232.976044 
	C17.364849,230.819931 15.613532,229.008667 14.309994,227.047211 
	C12.613632,228.599792 9.767041,229.941040 9.435701,231.744415 
	C8.425152,237.244537 8.007409,242.925110 8.043466,248.531052 
	C8.118196,260.149597 8.518315,271.770752 9.060146,283.377960 
	C9.178680,285.917206 9.977136,288.693542 11.300673,290.845001 
	C13.305615,294.104126 16.849552,293.629608 17.957014,289.940582 
	C18.892637,286.823975 19.080515,283.422668 19.182306,280.134430 
	C19.268581,277.347443 19.492302,275.003143 23.017469,275.174622 
	C26.612577,275.349487 25.950171,278.154663 25.864992,280.366364 
	C25.731354,283.836334 26.000204,287.499390 24.955362,290.708435 
	C23.833729,294.153290 21.391560,297.168213 19.762823,300.685364 
	C16.969406,301.000000 13.938813,301.000000 10.719366,300.701935 
	C7.960665,296.801178 5.420941,293.176117 2.780789,289.625702 
	C2.469562,289.207153 1.606993,289.198608 1.000001,289.000000 
	C1.000000,269.645782 1.000000,250.291550 0.999999,230.468658 
z"/>
<path fill="#020102" opacity="1.000000" stroke="none" 
	d="
M62.468529,301.000000 
	C63.222805,294.242950 64.589981,287.507324 65.595718,280.718109 
	C65.985382,278.087708 66.820770,277.078308 69.611374,276.978577 
	C81.049721,276.569763 81.002487,276.475189 81.961121,287.840057 
	C82.310020,291.976440 82.922188,296.090607 83.207123,300.607452 
	C76.312355,301.000000 69.624710,301.000000 62.468529,301.000000 
z"/>
<path fill="#020102" opacity="1.000000" stroke="none" 
	d="
M1.000001,289.479187 
	C1.606993,289.198608 2.469562,289.207153 2.780789,289.625702 
	C5.420941,293.176117 7.960665,296.801178 10.265255,300.701935 
	C7.067079,301.000000 4.134158,301.000000 1.000000,301.000000 
	C1.000000,297.320892 1.000000,293.639618 1.000001,289.479187 
z"/>
<path fill="#BD8FBF" opacity="1.000000" stroke="none" 
	d="
M67.316132,97.644775 
	C65.858261,92.636658 64.242813,88.064194 63.225952,83.362289 
	C62.033203,77.847038 63.988602,76.040291 69.529076,76.896057 
	C70.349266,77.022736 71.177849,77.101501 71.992912,77.253983 
	C77.375969,78.260979 77.831383,77.820412 76.930641,72.413269 
	C76.685631,70.942482 76.415230,69.475914 76.171867,68.004860 
	C75.496620,63.923111 78.011063,62.495937 81.355896,62.390121 
	C87.125809,62.207600 92.882622,66.037575 93.896767,71.767632 
	C95.507294,80.867386 96.448509,90.114838 97.116562,99.340088 
	C97.462410,104.116043 94.708626,105.404671 90.320961,103.232719 
	C84.823402,100.511368 83.857628,100.965050 83.439606,107.009232 
	C83.187340,110.656700 83.471664,114.338493 83.319069,117.996696 
	C83.232666,120.068214 82.750427,122.123222 82.446465,124.185661 
	C82.004242,124.371246 81.562019,124.556824 81.119789,124.742409 
	C79.812469,123.286987 78.064903,122.036835 77.273987,120.340622 
	C73.838333,112.972404 70.681519,105.474159 67.316132,97.644775 
z"/>
<path fill="#6214A6" opacity="1.000000" stroke="none" 
	d="
M32.003380,296.999847 
	C31.934107,293.015167 31.864834,289.030487 31.997772,284.300629 
	C32.038349,281.662872 31.876719,279.770264 31.715086,277.877686 
	C31.831224,259.558044 31.947365,241.238419 32.447594,222.359192 
	C33.183075,221.389587 33.534473,220.979568 33.885872,220.569550 
	C34.795834,220.447357 35.705791,220.325180 36.971535,220.601685 
	C37.745068,221.339874 38.162823,221.679367 38.580574,222.018875 
	C38.775875,243.085983 39.080662,264.153107 39.080883,285.220215 
	C39.080933,289.840210 39.440083,292.675751 45.215229,291.150513 
	C47.516277,290.542786 50.150429,291.196320 52.679024,291.890778 
	C52.060112,296.005280 50.051617,297.308319 46.432209,297.082611 
	C41.639519,296.783722 36.814503,297.003174 32.003380,296.999847 
z"/>
<path fill="#6113A5" opacity="1.000000" stroke="none" 
	d="
M102.218231,231.047058 
	C102.103447,252.156967 101.987770,272.775299 101.875778,293.393616 
	C101.862358,295.864075 102.422256,298.584137 98.450523,298.561707 
	C94.640892,298.540192 94.881645,296.036102 94.884521,293.438324 
	C94.909035,271.304047 95.043770,249.168091 94.790596,227.036667 
	C94.730965,221.823502 96.904381,220.669174 102.218452,221.458298 
	C102.218452,224.406265 102.218452,227.480881 102.218231,231.047058 
z"/>
<path fill="#5E13A0" opacity="1.000000" stroke="none" 
	d="
M32.071686,297.389160 
	C36.814503,297.003174 41.639519,296.783722 46.432209,297.082611 
	C50.051617,297.308319 52.060112,296.005280 52.967136,292.204010 
	C54.339802,298.267975 54.106876,298.702209 48.180897,298.586395 
	C42.830708,298.481842 37.486713,298.060272 32.071686,297.389160 
z"/>
<path fill="#5E13A0" opacity="1.000000" stroke="none" 
	d="
M31.449451,278.141418 
	C31.876719,279.770264 32.038349,281.662872 31.949549,283.848846 
	C31.527349,282.229889 31.355583,280.317505 31.449451,278.141418 
z"/>
<path fill="#5E13A0" opacity="1.000000" stroke="none" 
	d="
M33.594494,220.634064 
	C33.534473,220.979568 33.183075,221.389587 32.577469,221.906555 
	C32.649876,221.575211 32.976498,221.136887 33.594494,220.634064 
z"/>
<path fill="#5E13A0" opacity="1.000000" stroke="none" 
	d="
M38.547237,221.732880 
	C38.162823,221.679367 37.745068,221.339874 37.216637,220.746490 
	C37.575272,220.810699 38.044586,221.128799 38.547237,221.732880 
z"/>
<path fill="#040107" opacity="1.000000" stroke="none" 
	d="
M79.421661,259.562195 
	C79.590324,260.835449 79.800095,261.648071 79.872910,262.472778 
	C80.421295,268.683746 76.889046,271.953186 70.845978,270.472260 
	C69.652878,270.179871 67.851486,268.145630 68.010979,267.197266 
	C70.099220,254.780853 72.484001,242.414169 74.831886,230.042130 
	C74.903923,229.662552 75.381752,229.359985 76.466606,228.087830 
	C77.503113,239.050873 78.451225,249.079025 79.421661,259.562195 
z"/>
</svg>