<?xml version="1.0" encoding="UTF-8" ?>
<!DOCTYPE svg PUBLIC "-//W3C//DTD SVG 1.1//EN" "http://www.w3.org/Graphics/SVG/1.1/DTD/svg11.dtd">
<svg width="143pt" height="83pt" viewBox="0 0 143 83" version="1.1" xmlns="http://www.w3.org/2000/svg">
<g id="#6214a7fe">
<path fill="#6214a7" opacity="1.00" d=" M 5.49 4.48 C 10.09 0.35 18.33 1.08 21.83 6.27 C 24.35 10.76 23.87 16.16 24.08 21.13 C 25.01 24.60 19.38 25.61 17.92 23.17 C 17.31 18.33 19.19 11.54 13.90 8.72 C 9.87 7.80 7.72 12.61 7.30 15.93 C 6.44 30.60 7.28 45.30 7.36 59.99 C 7.73 64.61 7.18 69.91 10.27 73.74 C 12.02 76.22 16.44 75.40 17.33 72.56 C 18.92 67.80 18.26 62.69 18.82 57.77 C 20.73 57.64 22.65 57.59 24.57 57.62 C 25.01 65.13 25.10 73.28 20.85 79.83 C 17.94 82.65 13.28 81.97 9.67 81.15 C 4.41 79.55 2.32 73.78 1.67 68.83 C 0.87 60.23 1.23 51.58 1.10 42.96 C 0.84 34.27 0.59 25.56 1.22 16.89 C 1.62 12.53 2.40 7.81 5.49 4.48 Z" />
<path fill="#6214a7" opacity="1.00" d=" M 69.64 2.65 C 73.40 1.12 77.51 2.71 81.19 3.77 C 84.13 16.98 83.55 30.64 85.18 44.02 C 86.76 56.49 88.21 68.99 89.01 81.54 C 86.97 81.98 84.91 82.32 82.82 82.40 C 81.14 74.80 81.24 66.94 80.23 59.24 C 75.12 58.67 69.97 58.57 64.85 58.85 C 63.72 66.41 63.16 74.09 61.41 81.54 C 59.34 81.52 57.27 81.43 55.21 81.31 C 57.40 63.18 59.95 45.08 63.41 27.15 C 65.42 18.98 66.07 10.33 69.64 2.65 M 70.46 24.00 C 68.51 33.09 67.62 42.36 66.24 51.54 C 70.65 51.91 75.07 51.79 79.48 51.57 C 78.81 37.25 77.64 22.89 75.01 8.79 C 72.13 13.37 71.54 18.83 70.46 24.00 Z" />
<path fill="#6214a7" opacity="1.00" d=" M 135.19 1.58 C 137.26 1.59 139.33 1.73 141.34 2.23 C 142.30 24.48 142.18 46.76 141.60 69.01 C 141.45 72.76 141.29 76.52 140.83 80.24 C 138.84 80.39 136.85 80.46 134.86 80.48 C 134.77 61.22 136.75 41.92 135.21 22.68 C 132.27 33.30 128.39 43.65 126.08 54.44 C 124.92 53.90 123.60 53.32 123.23 51.96 C 119.58 42.45 117.75 32.37 114.83 22.64 C 114.72 27.40 114.51 32.17 114.69 36.93 C 115.05 51.46 114.42 65.99 114.38 80.51 C 112.53 80.55 110.50 81.24 108.78 80.26 C 108.03 79.00 108.46 77.38 108.29 75.98 C 108.06 62.99 108.09 49.99 108.23 37.00 C 108.78 25.69 108.46 14.33 109.95 3.08 C 112.48 2.79 115.04 2.72 117.53 3.33 C 119.85 14.00 120.87 25.11 124.99 35.29 C 126.68 27.75 129.59 20.55 131.30 13.01 C 132.20 9.07 133.74 5.33 135.19 1.58 Z" />
<path fill="#6214a7" opacity="1.00" d=" M 31.16 17.06 C 31.17 12.26 30.91 7.44 31.51 2.67 C 33.47 2.65 35.44 2.66 37.41 2.74 C 37.88 11.15 36.94 19.59 37.69 28.00 C 38.04 43.23 37.75 58.47 38.17 73.70 C 42.94 73.56 47.70 73.12 52.48 73.45 C 52.52 75.61 52.54 77.77 52.53 79.93 C 45.35 80.70 38.11 80.14 30.90 80.33 C 30.85 59.24 30.77 38.15 31.16 17.06 Z" />
<path fill="#6214a7" opacity="1.00" d=" M 94.29 3.94 C 96.50 3.74 98.72 3.61 100.94 3.53 C 100.96 13.69 100.68 23.84 100.44 34.00 C 100.79 49.38 100.57 64.77 100.28 80.15 C 98.29 80.11 96.30 79.99 94.32 79.74 C 93.93 54.48 94.20 29.20 94.29 3.94 Z" />
</g>
</svg>
