<?xml version="1.0" encoding="UTF-8" ?>
<!DOCTYPE svg PUBLIC "-//W3C//DTD SVG 1.1//EN" "http://www.w3.org/Graphics/SVG/1.1/DTD/svg11.dtd">
<svg width="143pt" height="300pt" viewBox="0 0 143 300" version="1.1" xmlns="http://www.w3.org/2000/svg">
<g id="#bf91c1fe">
<path fill="#bf91c1" opacity="1.00" d=" M 71.38 0.00 L 83.52 0.00 C 92.80 3.09 102.89 5.11 110.84 11.20 C 115.92 15.02 121.68 18.17 125.55 23.36 C 128.40 27.83 132.60 31.40 134.70 36.34 C 136.11 39.81 133.67 42.34 132.15 44.99 C 129.61 45.76 127.78 47.61 126.97 50.13 C 121.93 53.34 116.99 57.63 111.06 58.98 C 106.21 57.27 103.69 52.17 99.39 49.58 C 94.83 45.49 89.19 42.97 83.24 41.78 C 79.74 40.79 76.25 40.79 72.77 41.78 C 70.11 42.54 67.57 43.70 65.36 45.38 C 52.77 55.52 46.93 72.06 45.75 87.76 C 45.21 90.89 44.52 94.19 45.68 97.27 C 46.32 110.98 50.04 124.69 58.10 135.93 C 62.37 139.85 66.80 144.34 72.76 145.25 C 75.57 145.91 78.49 146.31 81.27 145.39 C 90.45 144.57 97.94 138.48 104.89 132.98 C 108.47 131.53 111.73 128.72 113.17 125.06 C 118.01 122.26 123.09 126.17 126.88 129.03 C 127.93 131.80 130.20 134.07 132.96 135.17 C 135.86 139.70 141.61 144.27 139.38 150.34 C 133.84 160.67 124.46 168.38 115.02 175.03 C 89.96 191.59 53.34 189.86 32.02 167.87 C 31.14 166.20 29.79 164.85 28.13 163.98 C 9.84 143.94 1.56 115.82 3.11 89.00 C 4.35 75.06 6.04 60.82 12.05 48.02 C 15.23 38.18 22.28 30.43 28.25 22.22 C 39.47 10.06 54.94 2.10 71.38 0.00 Z" />
<path fill="#bf91c1" opacity="1.00" d=" M 78.33 62.35 C 82.86 61.54 87.11 63.85 90.78 66.18 C 93.94 73.12 94.39 80.90 95.44 88.35 C 95.87 93.11 97.15 98.43 94.78 102.89 C 90.27 105.11 88.29 99.05 84.17 100.07 C 80.22 106.13 82.83 114.17 81.94 120.96 C 82.09 123.04 78.97 123.78 78.19 121.80 C 74.20 115.16 70.98 108.08 68.25 100.84 C 65.60 93.21 61.74 85.60 63.11 77.23 C 66.58 73.61 73.44 79.75 76.89 75.80 C 77.40 71.47 72.82 63.81 78.33 62.35 Z" />
</g>
<g id="#5f169eef">
<path fill="#5f169e" opacity="0.94" d=" M 72.77 41.78 C 76.25 40.79 79.74 40.79 83.24 41.78 C 79.75 41.97 76.26 41.84 72.77 41.78 Z" />
<path fill="#5f169e" opacity="0.94" d=" M 126.97 50.13 C 127.78 47.61 129.61 45.76 132.15 44.99 C 131.01 47.15 129.16 49.02 126.97 50.13 Z" />
<path fill="#5f169e" opacity="0.94" d=" M 45.68 97.27 C 44.52 94.19 45.21 90.89 45.75 87.76 C 45.88 90.93 45.75 94.09 45.68 97.27 Z" />
<path fill="#5f169e" opacity="0.94" d=" M 104.89 132.98 C 107.30 130.00 110.01 127.24 113.17 125.06 C 111.73 128.72 108.47 131.53 104.89 132.98 Z" />
<path fill="#5f169e" opacity="0.94" d=" M 126.88 129.03 C 129.36 130.59 131.25 132.81 132.96 135.17 C 130.20 134.07 127.93 131.80 126.88 129.03 Z" />
<path fill="#5f169e" opacity="0.94" d=" M 72.76 145.25 C 75.60 145.26 78.43 145.31 81.27 145.39 C 78.49 146.31 75.57 145.91 72.76 145.25 Z" />
<path fill="#5f169e" opacity="0.94" d=" M 28.13 163.98 C 29.79 164.85 31.14 166.20 32.02 167.87 C 29.74 168.32 27.69 166.26 28.13 163.98 Z" />
<path fill="#5f169e" opacity="0.94" d=" M 9.31 219.31 C 14.88 217.26 21.38 220.40 22.91 226.06 C 24.55 230.82 24.02 236.02 23.95 240.99 C 22.49 240.99 19.56 240.98 18.09 240.98 C 17.39 236.16 19.11 229.70 14.79 226.16 C 8.45 224.29 6.70 232.44 7.04 236.99 C 7.50 253.28 5.74 269.74 8.18 285.93 C 8.78 289.47 11.01 294.17 15.83 291.92 C 18.96 288.58 17.41 283.74 18.43 279.65 C 15.19 272.33 29.58 273.07 25.01 280.02 C 24.68 285.97 24.48 293.42 19.72 297.70 C 11.19 302.70 1.57 294.17 1.53 285.35 C 0.33 268.61 1.32 251.76 0.98 234.98 C 1.33 229.02 2.70 221.25 9.31 219.31 Z" />
<path fill="#5f169e" opacity="0.94" d=" M 70.20 219.09 C 74.08 218.69 79.13 218.86 81.77 222.24 C 83.65 236.23 83.73 250.35 85.45 264.35 C 87.02 275.52 88.13 286.76 89.02 298.00 C 89.72 301.11 83.14 299.69 82.24 297.75 C 82.08 291.83 81.02 285.98 80.76 280.07 C 79.93 277.48 80.43 272.77 74.99 275.98 C 72.54 276.01 67.63 276.07 65.18 276.10 C 63.09 283.12 63.74 290.68 61.72 297.76 C 59.69 299.30 57.23 299.11 55.14 297.80 C 58.42 271.74 61.85 245.51 69.19 220.23 C 69.44 219.95 69.95 219.38 70.20 219.09 M 74.24 227.20 C 69.13 240.04 68.48 254.26 66.14 267.80 C 69.33 270.97 75.00 268.00 78.96 268.98 C 80.04 254.84 76.12 241.01 75.90 226.93 C 75.48 227.00 74.66 227.13 74.24 227.20 Z" />
<path fill="#5f169e" opacity="0.94" d=" M 135.17 219.06 C 136.59 219.06 139.42 219.04 140.84 219.04 C 143.02 231.90 141.61 245.02 142.00 258.00 C 141.82 270.92 142.69 283.94 140.81 296.78 C 138.96 296.93 136.37 299.06 135.16 296.77 C 133.83 278.46 136.77 260.30 135.96 242.01 C 133.23 241.12 134.24 244.26 133.71 245.85 C 130.89 253.36 128.12 260.96 126.88 268.94 C 126.80 270.35 125.58 271.40 124.16 270.92 C 119.84 261.86 118.38 251.84 115.78 242.23 L 115.01 241.85 C 114.72 260.57 115.79 279.34 113.86 298.00 L 109.23 297.88 C 108.95 297.60 108.41 297.04 108.14 296.77 C 108.07 280.29 107.51 263.78 108.47 247.33 C 109.82 238.27 107.76 228.95 110.24 220.05 C 111.95 221.44 116.51 218.34 117.73 221.25 C 119.37 231.31 121.45 241.31 124.11 251.17 C 127.38 249.63 125.18 245.08 127.57 242.76 C 130.93 235.14 131.26 226.42 135.17 219.06 Z" />
<path fill="#5f169e" opacity="0.94" d=" M 31.05 219.99 C 34.60 218.45 41.02 220.61 37.74 225.93 C 36.47 233.23 36.99 240.68 37.92 247.99 C 38.23 262.31 37.78 276.64 38.06 290.96 C 42.92 291.59 55.43 285.75 52.89 295.77 C 52.61 296.04 52.05 296.58 51.77 296.86 C 44.86 297.11 37.94 297.07 31.03 296.96 C 31.00 271.30 30.94 245.64 31.05 219.99 Z" />
<path fill="#5f169e" opacity="0.94" d=" M 94.04 221.01 C 95.77 221.02 99.23 221.03 100.97 221.03 C 101.04 229.36 101.08 237.68 100.97 246.01 C 99.09 258.51 102.47 271.13 100.68 283.72 C 99.80 288.09 100.17 292.57 99.92 297.00 L 95.23 296.88 C 94.96 296.60 94.41 296.04 94.14 295.76 C 93.84 270.85 94.03 245.93 94.04 221.01 Z" />
</g>
</svg>
